<?xml version="1.0" encoding="utf-8"?>
<!-- Generator: Adobe Illustrator 24.2.1, SVG Export Plug-In . SVG Version: 6.00 Build 0)  -->
<svg version="1.1" id="图层_1" xmlns="http://www.w3.org/2000/svg" xmlns:xlink="http://www.w3.org/1999/xlink" x="0px" y="0px"
	 viewBox="0 0 300 300" style="enable-background:new 0 0 300 300;" xml:space="preserve">
<style type="text/css">
	.st0{fill:#FDF2F2;}
	.st1{fill:#EB5976;}
	.st2{fill:#BBA6B1;}
	.st3{fill:#F0B8C5;}
	.st4{fill:#CBA6B9;}
	.st5{fill:#B98AA0;}
	.st6{fill:#F7D8DC;}
	.st7{fill:#EEACBB;}
	.st8{opacity:0.8;fill:#F7D8DC;}
	.st9{fill:#873D1A;}
	.st10{fill:#947C88;}
</style>
<circle class="st0" cx="150" cy="150" r="150"/>
<g>
	<path class="st1" d="M245.18,108.57c3.32,1.92,6.85,1.87,13.31-0.79c10.23-4.2,9.88-16.08,2.78-17.58
		c-6.84-1.44-15.27,7.54-6.71,13.05c9.22,5.93,16.86-6.49,16.86-6.49c-3.91,3.77-12.59,7.61-15.94,3.54
		c-2.1-2.55,2.23-8.16,6.1-5.58c3.54,2.36,1.62,7.89-5.9,10.69c-7.52,2.8-9.27-0.18-9.27-0.18L245.18,108.57z"/>
	<path class="st2" d="M199.01,189.88l-3.18,21.14h12.68h0.79l4.77-19.17c-2.25-0.86-4.95-5.16-8.19-2.63
		C204.42,189.35,201.94,189.62,199.01,189.88z"/>
	<path class="st2" d="M95.47,211.02h14.61c2.3-5.3,4.3-10.21,6.04-14.75c-5.33-0.3-11.48-0.87-17.79-1.91
		C97.94,205,95.47,211.02,95.47,211.02z"/>
	<path class="st3" d="M248.82,109.08c0,0-10.17-23.55-46.03-16.56c0,0-28.65,6.49-72.53,0c0,0-54.93-10.51-78.32,21.26
		c0,0-30.79,42.86,14.46,71.7c23.12,13.65,63.44,11.42,63.44,11.42c47.59-2.94,71.35-5.05,78.41-5.72
		c8.39,4.97,15.76,5.86,15.76,5.86l-3.8,21.65h12.68h0.79l5.94-24.63C239.62,194.07,266.23,148.42,248.82,109.08z"/>
	<path class="st4" d="M192.34,175.48c-2.13-3.05-2.57-4.78-2.57-4.78c-9.83,4.35-27.73,9.9-47.24,4.36l-6.27-2.75l-6.21,18.89
		c-0.79-3.22-3.94-12.95-13.03-10.3c0,0-14.14,14.42-42.48,8.53c1.13-2.71-11.29-5.95-8.14-3.94c20.32,12,53.9,11.73,61.75,11.49
		l0,0c0.19,0,0.36-0.01,0.51-0.02c0.02,0,0.03,0,0.05,0c0.73-0.03,1.13-0.05,1.13-0.05c47.59-2.94,71.35-5.05,78.41-5.72
		C202.8,187.96,196.93,183.01,192.34,175.48z"/>
	<path class="st5" d="M136.17,196.52c2.11-0.13,4.19-0.26,6.2-0.39c0,0,3.13-15.06,3.27-29.16L136.17,196.52z"/>
	<path class="st3" d="M123.17,123.74c-23.93,9.73-10.51,48.15-10.51,48.15c8.85,28.83,1.44,46.8,1.44,46.8h14.61
		c16.8-38.7,17.62-57.08,17.62-57.08L123.17,123.74z"/>
	<path class="st6" d="M123.98,179.01c0,0-7.07-35.43-1.17-55.12c-23.43,9.98-10.15,48-10.15,48c8.85,28.83,1.44,46.8,1.44,46.8h5.04
		C122.26,212.94,127.4,199.7,123.98,179.01z"/>
	<path class="st5" d="M189.76,170.7c0.62,14.69,5.49,21.61,5.5,21.63c9.42-0.75,10.02-0.86,12.99-1.14
		C194.93,183.38,189.76,170.7,189.76,170.7z"/>
	<path class="st6" d="M202.79,92.53c0,0-28.65,6.49-72.53,0c0,0-54.93-10.51-78.32,21.26c0,0-2.69,3.74-5.31,9.76h0
		c22.41-35.89,83.63-21.91,83.63-21.91c41.41,7.39,72.53,0,72.53,0c34.92-7.15,45.28,6.4,45.98,7.39h0.02
		C248.21,107.76,237.63,85.73,202.79,92.53z"/>
	<path class="st7" d="M233.68,218.69l5.94-24.63c0,0,26.61-45.65,9.2-84.98c0,0-2.79-6.45-10.58-11.59
		c15.95,31.64-10,53.74-10,53.74c15.18,27.48,0,67.46,0,67.46h4.65H233.68z"/>
	<path class="st8" d="M214.7,192.02c-0.48,0-0.97-0.08-1.45-0.26c-0.44-0.16-10.87-4.09-19.23-15.11
		c-7.62-10.04-14.96-28.11-6.61-57.16c0.64-2.23,2.97-3.51,5.19-2.88c2.23,0.64,3.52,2.96,2.87,5.19
		c-5.93,20.64-4.17,37.39,5.23,49.77c6.9,9.09,15.36,12.28,15.45,12.31c2.18,0.8,3.29,3.21,2.49,5.39
		C218.01,190.97,216.41,192.02,214.7,192.02z"/>
	<path class="st3" d="M248.77,109.02h0.02c-0.28-0.62-3.17-6.65-10.56-11.53c0.96,1.92,1.77,3.79,2.45,5.64
		C246.2,105.62,248.46,108.58,248.77,109.02z"/>
	<polygon class="st3" points="43.93,130.94 39.02,153.95 30.84,158.09 46.63,179.77 74.54,189.43 88.77,174.92 91.31,131.36 	"/>
	<polygon class="st1" points="28.58,158.09 44.37,179.77 49.45,179.77 35.14,154.78 	"/>
	<path class="st9" d="M64.25,143.18c0,2.59-2.1,4.69-4.69,4.69c-2.59,0-4.69-2.1-4.69-4.69c0-2.59,2.1-4.69,4.69-4.69
		C62.15,138.49,64.25,140.59,64.25,143.18z"/>
	<polygon class="st10" points="220.21,218.69 232.89,218.69 233.68,218.69 234.86,213.78 221.07,213.78 	"/>
	<path class="st10" d="M128.71,218.69c0.73-1.68,1.42-3.31,2.09-4.91h-15.28c-0.71,3.19-1.41,4.91-1.41,4.91H128.71z"/>
	<polygon class="st10" points="208.5,211.02 209.29,211.02 210.5,206.17 196.56,206.17 195.82,211.02 	"/>
	<path class="st10" d="M110.08,211.02c0.72-1.66,1.4-3.26,2.06-4.85H96.87c-0.71,3.15-1.4,4.85-1.4,4.85H110.08z"/>
	<g>
		<path class="st3" d="M89.08,101.44c-1.72-6.87-23.91-26.52-24.11-18.06c-0.27,10.81,5.25,25.66,5.25,25.66L89.08,101.44z"/>
		<path class="st6" d="M64.97,83.38c-0.04,1.51,0.04,3.09,0.2,4.7c4.05,0.67,9.48,1.24,13.42,0.39
			C72.13,82.74,65.09,78.64,64.97,83.38z"/>
	</g>
</g>
</svg>
